<svg width="191" height="36" viewBox="0 0 191 36" fill="none" xmlns="http://www.w3.org/2000/svg">
<path d="M6.85449 17.9932H9.0957C11.1904 17.9932 12.7578 17.583 13.7979 16.7627C14.8379 15.9277 15.3579 14.7192 15.3579 13.1372C15.3579 11.5405 14.9185 10.3613 14.0396 9.59961C13.1753 8.83789 11.813 8.45703 9.95264 8.45703H6.85449V17.9932ZM22.2354 12.8955C22.2354 16.3525 21.1514 18.9966 18.9834 20.8276C16.8301 22.6587 13.7612 23.5742 9.77686 23.5742H6.85449V35H0.0429688V2.87598H10.3042C14.2007 2.87598 17.1597 3.71826 19.1812 5.40283C21.2173 7.07275 22.2354 9.57031 22.2354 12.8955ZM33.1118 22.6733C33.1118 25.105 33.5073 26.9434 34.2983 28.1885C35.104 29.4336 36.4077 30.0562 38.2095 30.0562C39.9966 30.0562 41.2783 29.4409 42.0547 28.2104C42.8457 26.9653 43.2412 25.1196 43.2412 22.6733C43.2412 20.2417 42.8457 18.418 42.0547 17.2021C41.2637 15.9863 39.9673 15.3784 38.1655 15.3784C36.3784 15.3784 35.0894 15.9863 34.2983 17.2021C33.5073 18.4033 33.1118 20.2271 33.1118 22.6733ZM50.0967 22.6733C50.0967 26.6724 49.042 29.7998 46.9326 32.0557C44.8232 34.3115 41.8862 35.4395 38.1216 35.4395C35.7632 35.4395 33.6831 34.9268 31.8813 33.9014C30.0796 32.8613 28.6953 31.3745 27.7285 29.4409C26.7617 27.5073 26.2783 25.2515 26.2783 22.6733C26.2783 18.6597 27.3257 15.5396 29.4204 13.313C31.5151 11.0864 34.4595 9.97314 38.2534 9.97314C40.6118 9.97314 42.6919 10.4858 44.4937 11.5112C46.2954 12.5366 47.6797 14.0088 48.6465 15.9277C49.6133 17.8467 50.0967 20.0952 50.0967 22.6733ZM69.3447 9.97314C70.2529 9.97314 71.0073 10.0391 71.6079 10.1709L71.1025 16.4551C70.5605 16.3086 69.9014 16.2354 69.125 16.2354C66.9863 16.2354 65.3164 16.7847 64.1152 17.8833C62.9287 18.9819 62.3354 20.52 62.3354 22.4976V35H55.6338V10.4346H60.7095L61.6982 14.5654H62.0278C62.7896 13.1885 63.8149 12.0825 65.104 11.2476C66.4077 10.3979 67.8213 9.97314 69.3447 9.97314ZM86.4175 30.1001C87.5894 30.1001 88.9956 29.8438 90.6362 29.3311V34.3188C88.9663 35.0659 86.9155 35.4395 84.4839 35.4395C81.8032 35.4395 79.8477 34.7656 78.6172 33.418C77.4014 32.0557 76.7935 30.0195 76.7935 27.3096V15.4663H73.5854V12.6318L77.2769 10.3906L79.2104 5.20508H83.4951V10.4346H90.3726V15.4663H83.4951V27.3096C83.4951 28.2617 83.7588 28.9648 84.2861 29.4189C84.8281 29.873 85.5386 30.1001 86.4175 30.1001ZM109.203 15.4663H103.402V35H96.7007V15.4663H93.0093V12.2363L96.7007 10.4346V8.63281C96.7007 5.83496 97.3892 3.7915 98.7661 2.50244C100.143 1.21338 102.348 0.568848 105.38 0.568848C107.694 0.568848 109.752 0.913086 111.554 1.60156L109.84 6.52344C108.493 6.09863 107.248 5.88623 106.105 5.88623C105.153 5.88623 104.464 6.17188 104.04 6.74316C103.615 7.2998 103.402 8.01758 103.402 8.89648V10.4346H109.203V15.4663ZM118.41 22.6733C118.41 25.105 118.805 26.9434 119.596 28.1885C120.402 29.4336 121.706 30.0562 123.507 30.0562C125.294 30.0562 126.576 29.4409 127.353 28.2104C128.144 26.9653 128.539 25.1196 128.539 22.6733C128.539 20.2417 128.144 18.418 127.353 17.2021C126.562 15.9863 125.265 15.3784 123.463 15.3784C121.676 15.3784 120.387 15.9863 119.596 17.2021C118.805 18.4033 118.41 20.2271 118.41 22.6733ZM135.395 22.6733C135.395 26.6724 134.34 29.7998 132.23 32.0557C130.121 34.3115 127.184 35.4395 123.419 35.4395C121.061 35.4395 118.981 34.9268 117.179 33.9014C115.377 32.8613 113.993 31.3745 113.026 29.4409C112.06 27.5073 111.576 25.2515 111.576 22.6733C111.576 18.6597 112.624 15.5396 114.718 13.313C116.813 11.0864 119.757 9.97314 123.551 9.97314C125.91 9.97314 127.99 10.4858 129.792 11.5112C131.593 12.5366 132.978 14.0088 133.944 15.9277C134.911 17.8467 135.395 20.0952 135.395 22.6733ZM147.633 35H140.932V0.810547H147.633V35ZM154.401 4.08447C154.401 1.90186 155.617 0.810547 158.048 0.810547C160.48 0.810547 161.696 1.90186 161.696 4.08447C161.696 5.12451 161.388 5.9375 160.773 6.52344C160.172 7.09473 159.264 7.38037 158.048 7.38037C155.617 7.38037 154.401 6.28174 154.401 4.08447ZM161.388 35H154.687V10.4346H161.388V35ZM173.781 22.6733C173.781 25.105 174.176 26.9434 174.967 28.1885C175.773 29.4336 177.077 30.0562 178.878 30.0562C180.666 30.0562 181.947 29.4409 182.724 28.2104C183.515 26.9653 183.91 25.1196 183.91 22.6733C183.91 20.2417 183.515 18.418 182.724 17.2021C181.933 15.9863 180.636 15.3784 178.834 15.3784C177.047 15.3784 175.758 15.9863 174.967 17.2021C174.176 18.4033 173.781 20.2271 173.781 22.6733ZM190.766 22.6733C190.766 26.6724 189.711 29.7998 187.602 32.0557C185.492 34.3115 182.555 35.4395 178.791 35.4395C176.432 35.4395 174.352 34.9268 172.55 33.9014C170.749 32.8613 169.364 31.3745 168.397 29.4409C167.431 27.5073 166.947 25.2515 166.947 22.6733C166.947 18.6597 167.995 15.5396 170.089 13.313C172.184 11.0864 175.128 9.97314 178.922 9.97314C181.281 9.97314 183.361 10.4858 185.163 11.5112C186.964 12.5366 188.349 14.0088 189.315 15.9277C190.282 17.8467 190.766 20.0952 190.766 22.6733Z" fill="white"/>
</svg>
